# xmcd
#
# Track frame offsets: 
#        150
#        16205
#        36468
#        47410
#        59842
#        72165
#        86964
#        100652
#        112021
#        126434
#        141053
#        156040
#        169574
#
# Disc length: 2462 seconds
#
# Revision: 0
# Processed by: cddbd v1.5.2PL0 Copyright (c) Steve Scherf et al.
# Submitted via: ExactAudioCopyFreeDBPlugin 1.0
#
DISCID=b4099c0d
DTITLE=Jett Williams - Honk!
DYEAR=1900
DGENRE=Country
TTITLE0=Cold Cold Country
TTITLE1=Hank Williams Blues
TTITLE2=Move It On Over
TTITLE3=One
TTITLE4=Mondy All Week Long
TTITLE5=Heart Of Dixie
TTITLE6=My Sweet Love
TTITLE7=Day Of Reckoning
TTITLE8=Eight Roses
TTITLE9=Delta Dawn
TTITLE10=Honk
TTITLE11=Long Gone Lonesome Blues
TTITLE12=Your Cheatin Heart
EXTD=
EXTT0=
EXTT1=
EXTT2=
EXTT3=
EXTT4=
EXTT5=
EXTT6=
EXTT7=
EXTT8=
EXTT9=
EXTT10=
EXTT11=
EXTT12=
PLAYORDER=
